<?xml version="1.0" encoding="UTF-8"?>
<svg width="4117px" height="920px" viewBox="0 0 4117 920" version="1.1" xmlns="http://www.w3.org/2000/svg" xmlns:xlink="http://www.w3.org/1999/xlink">
    <!-- Generator: Sketch 57.1 (83088) - https://sketch.com -->
    <title>Group 9</title>
    <desc>Created with Sketch.</desc>
    <g id="Page-1" stroke="none" stroke-width="1" fill="none" fill-rule="evenodd">
        <g id="Group-9" transform="translate(-25.000000, -57.000000)">
            <g id="Group-8">
                <g id="Group-7">
                    <rect id="Rectangle" fill="#F8F8FF" x="25" y="57" width="880" height="920" rx="218"></rect>
                    <g id="Group-5" transform="translate(487.201294, 500.616333) rotate(42.000000) translate(-487.201294, -500.616333) translate(228.701294, 60.116333)" fill="#4F46E5">
                        <g id="Group-6" transform="translate(0.430943, 0.198784)">
                            <g id="Group-4" transform="translate(0.000000, 256.352509)">
                                <g id="Group-3">
                                    <rect id="Rectangle-Copy" x="0" y="1.07711138" width="111.956522" height="106.634027" rx="21"></rect>
                                    <rect id="Rectangle-Copy-2" x="0" y="129.253366" width="111.956522" height="106.634027" rx="21"></rect>
                                    <rect id="Rectangle-Copy-4" x="134.347826" y="0" width="111.956522" height="106.634027" rx="21"></rect>
                                    <rect id="Rectangle-Copy-3" x="134.347826" y="128.176255" width="111.956522" height="106.634027" rx="21"></rect>
                                </g>
                                <g id="Group-3-Copy" transform="translate(268.695652, 0.000000)">
                                    <rect id="Rectangle-Copy" x="0" y="1.07711138" width="111.956522" height="106.634027" rx="21"></rect>
                                    <rect id="Rectangle-Copy-2" x="0" y="129.253366" width="111.956522" height="106.634027" rx="21"></rect>
                                    <rect id="Rectangle-Copy-4" x="134.347826" y="0" width="111.956522" height="106.634027" rx="21"></rect>
                                    <rect id="Rectangle-Copy-3" x="134.347826" y="128.176255" width="111.956522" height="106.634027" rx="21"></rect>
                                </g>
                                <g id="Group-3-Copy-3" transform="translate(0.000000, 259.583843)">
                                    <rect id="Rectangle-Copy" x="0" y="1.07711138" width="111.956522" height="106.634027" rx="21"></rect>
                                    <rect id="Rectangle-Copy-2" x="0" y="129.253366" width="111.956522" height="106.634027" rx="21"></rect>
                                    <rect id="Rectangle-Copy-4" x="134.347826" y="0" width="111.956522" height="106.634027" rx="21"></rect>
                                    <rect id="Rectangle-Copy-3" x="134.347826" y="128.176255" width="111.956522" height="106.634027" rx="21"></rect>
                                </g>
                                <g id="Group-3-Copy-2" transform="translate(268.695652, 259.583843)">
                                    <rect id="Rectangle-Copy" x="0" y="1.07711138" width="111.956522" height="106.634027" rx="21"></rect>
                                    <rect id="Rectangle-Copy-2" x="0" y="129.253366" width="111.956522" height="106.634027" rx="21"></rect>
                                    <rect id="Rectangle-Copy-4" x="134.347826" y="0" width="111.956522" height="106.634027" rx="21"></rect>
                                    <rect id="Rectangle-Copy-3" x="134.347826" y="128.176255" width="111.956522" height="106.634027" rx="21"></rect>
                                </g>
                            </g>
                            <rect id="Rectangle-Copy" x="201.521739" y="128.176255" width="111.956522" height="106.634027" rx="21"></rect>
                            <rect id="Rectangle-Copy-5" x="201.521739" y="-1.13686838e-13" width="111.956522" height="106.634027" rx="21"></rect>
                            <rect id="Rectangle-Copy-7" x="201.521739" y="773.365973" width="111.956522" height="106.634027" rx="21"></rect>
                        </g>
                    </g>
                </g>
            </g>
            <path d="M1555.72669,503.36 C1586.49855,513.439098 1610.90345,530.281549 1628.94212,553.887857 C1646.9808,577.494166 1656,606.802682 1656,641.814286 C1656,690.08786 1637.43105,727.35344 1600.2926,753.612143 C1563.15416,779.870846 1509.03894,793 1437.94534,793 L1161,793 L1161,236 L1422.02894,236 C1487.81705,236 1538.48375,248.863919 1574.03055,274.592143 C1609.57735,300.320367 1627.35048,335.729298 1627.35048,380.82 C1627.35048,408.4049 1620.98399,432.806561 1608.2508,454.025714 C1595.51762,475.244868 1578.00976,491.689465 1555.72669,503.36 Z M1264,317 L1264,471 L1410.63385,471 C1446.76121,471 1474.52042,464.483658 1493.91231,451.450777 C1513.3042,438.417897 1523,419.400816 1523,394.398964 C1523,368.865157 1513.3042,349.582103 1493.91231,336.549223 C1474.52042,323.516342 1446.76121,317 1410.63385,317 L1264,317 Z M1430.95291,712 C1510.9847,712 1551,685.166935 1551,631.5 C1551,577.833065 1510.9847,551 1430.95291,551 L1264,551 L1264,712 L1430.95291,712 Z M1904.23904,799 C1860.14852,799 1825.75311,786.931585 1801.05179,762.794393 C1776.35047,738.6572 1764,704.573874 1764,660.543391 L1764,203 L1863.60159,203 L1863.60159,653.381842 C1863.60159,695.820862 1883.52171,717.040053 1923.36255,717.040053 C1936.64283,717.040053 1948.5949,714.387654 1959.21912,709.082777 L1964,788.655541 C1945.40761,795.551881 1925.48749,799 1904.23904,799 Z M2221.10193,798 C2178.11051,798 2139.36573,788.722213 2104.86643,770.166362 C2070.36714,751.610511 2043.43156,725.765248 2024.05888,692.629799 C2004.68619,659.49435 1995,621.985584 1995,580.102377 C1995,538.219169 2004.68619,500.842943 2024.05888,467.972578 C2043.43156,435.102212 2070.36714,409.389489 2104.86643,390.833638 C2139.36573,372.277787 2178.11051,363 2221.10193,363 C2264.62412,363 2303.63427,372.277787 2338.13357,390.833638 C2372.63286,409.389489 2399.56844,435.102212 2418.94112,467.972578 C2438.31381,500.842943 2448,538.219169 2448,580.102377 C2448,621.985584 2438.31381,659.49435 2418.94112,692.629799 C2399.56844,725.765248 2372.63286,751.610511 2338.13357,770.166362 C2303.63427,788.722213 2264.62412,798 2221.10193,798 Z M2220.10095,714 C2256.81406,714 2287.14184,701.788545 2311.08517,677.365269 C2335.02851,652.941994 2347,620.820558 2347,581 C2347,541.179442 2335.02851,509.058006 2311.08517,484.634731 C2287.14184,460.211455 2256.81406,448 2220.10095,448 C2183.38783,448 2153.19307,460.211455 2129.51577,484.634731 C2105.83847,509.058006 2094,541.179442 2094,581 C2094,620.820558 2105.83847,652.941994 2129.51577,677.365269 C2153.19307,701.788545 2183.38783,714 2220.10095,714 Z M2723.22162,610.602426 L2649.32432,680.69407 L2649.32432,793 L2550,793 L2550,202 L2649.32432,202 L2649.32432,558.830189 L2855.12432,367.671159 L2974.31351,367.671159 L2797.11892,546.086253 L2991,793 L2870.22162,793 L2723.22162,610.602426 Z M3301,769.37481 C3289.3245,778.916588 3275.12837,786.072814 3258.41118,790.843703 C3241.694,795.614591 3224.04834,798 3205.47368,798 C3158.7717,798 3122.68434,785.807912 3097.21053,761.423369 C3071.73671,737.038826 3059,701.522742 3059,654.874052 L3059,274 L3158.50658,274 L3158.50658,371.007587 L3272.34211,371.007587 L3272.34211,450.522003 L3158.50658,450.522003 L3158.50658,652.488619 C3158.50658,673.162471 3163.68087,688.932672 3174.02961,699.799697 C3184.37834,710.666721 3198.83982,716.100152 3217.41447,716.100152 C3239.70406,716.100152 3258.27843,710.269153 3273.13816,698.60698 L3301,769.37481 Z M3567.10193,798 C3524.11051,798 3485.36573,788.722213 3450.86643,770.166362 C3416.36714,751.610511 3389.43156,725.765248 3370.05888,692.629799 C3350.68619,659.49435 3341,621.985584 3341,580.102377 C3341,538.219169 3350.68619,500.842943 3370.05888,467.972578 C3389.43156,435.102212 3416.36714,409.389489 3450.86643,390.833638 C3485.36573,372.277787 3524.11051,363 3567.10193,363 C3610.62412,363 3649.63427,372.277787 3684.13357,390.833638 C3718.63286,409.389489 3745.56844,435.102212 3764.94112,467.972578 C3784.31381,500.842943 3794,538.219169 3794,580.102377 C3794,621.985584 3784.31381,659.49435 3764.94112,692.629799 C3745.56844,725.765248 3718.63286,751.610511 3684.13357,770.166362 C3649.63427,788.722213 3610.62412,798 3567.10193,798 Z M3567.10095,714 C3603.81406,714 3634.14184,701.788545 3658.08517,677.365269 C3682.02851,652.941994 3694,620.820558 3694,581 C3694,541.179442 3682.02851,509.058006 3658.08517,484.634731 C3634.14184,460.211455 3603.81406,448 3567.10095,448 C3530.38783,448 3500.19307,460.211455 3476.51577,484.634731 C3452.83847,509.058006 3441,541.179442 3441,581 C3441,620.820558 3452.83847,652.941994 3476.51577,677.365269 C3500.19307,701.788545 3530.38783,714 3567.10095,714 Z M3990.73786,429.888889 C4019.3982,385.296073 4069.81841,363 4142,363 L4142,457.759259 C4133.50805,456.166659 4125.81233,455.37037 4118.91262,455.37037 C4080.16809,455.37037 4049.91597,466.651122 4028.15534,489.212963 C4006.39471,511.774804 3995.51456,544.289911 3995.51456,586.759259 L3995.51456,793 L3896,793 L3896,367.777778 L3990.73786,367.777778 L3990.73786,429.888889 Z" id="Bloktor" fill="#F8F8FF" fill-rule="nonzero"></path>
        </g>
    </g>
</svg>