<?xml version="1.0" encoding="UTF-8"?>
<svg width="1484px" height="1713px" viewBox="0 0 1484 1713" version="1.1" xmlns="http://www.w3.org/2000/svg" xmlns:xlink="http://www.w3.org/1999/xlink">
    <!-- Generator: Sketch 57.1 (83088) - https://sketch.com -->
    <title>Logo lines</title>
    <desc>Created with Sketch.</desc>
    <g id="Page-1" stroke="none" stroke-width="1" fill="none" fill-rule="evenodd">
        <g id="Artboard" transform="translate(-280.000000, -168.000000)" fill="#3F45D8">
            <g id="Logo-lines" transform="translate(280.000000, 168.000000)">
                <path d="M744,0 L1484,431.909058 L1484,952.453125 L1180.09082,1120.9375 L1180.09082,1453.66113 L744,1713 L306.863037,1453.66113 L306.863037,1120.9375 L4,952.453125 L4,431.909058 L744,0 Z M1340.2002,615.982422 L1180,699.318848 L1037.44409,699.318848 L1037.44409,772 L820.589844,905.554688 L820.589844,1334.16284 L747.344482,1372.32715 L670.957275,1334.16284 L670.957275,905.554688 L154.48877,615.982422 L154.48877,856 L453.562256,1034.05566 L453.562256,1372.32715 L744,1536.41089 L1037.44409,1372.32715 L1037.44409,1034.05566 L1340.2002,856.5 L1340.2002,615.982422 Z M460,347 L220,487 L671.478375,729.579834 L820,729.579834 L914.878418,672.933594 L914.878418,615.982422 L460,347 Z M774.775391,155.759277 L577.47522,268.520996 L1041.0835,541.693726 L1175.38086,541.693726 L1275.21153,477.128755 L1275.28114,449.845907 L774.775391,155.759277 Z" id="Combined-Shape"></path>
                <polygon id="Path-5" points="1484 1113.62231 1320 1207 1320 1387 1484 1286.94385"></polygon>
                <polygon id="Path-6" points="0 1107 0 1287 164 1387 164 1207.37769"></polygon>
            </g>
        </g>
    </g>
</svg>