<?xml version="1.0" encoding="UTF-8"?>
<svg width="342px" height="342px" viewBox="0 0 342 342" version="1.1" xmlns="http://www.w3.org/2000/svg" xmlns:xlink="http://www.w3.org/1999/xlink">
    <!-- Generator: Sketch 57.1 (83088) - https://sketch.com -->
    <title>Group</title>
    <desc>Created with Sketch.</desc>
    <g id="Page-1" stroke="none" stroke-width="1" fill="none" fill-rule="evenodd">
        <g id="Group">
            <circle id="Oval" fill="#D58327" cx="171" cy="171" r="171"></circle>
            <path d="M147.409074,236.805103 L190.332396,236.905358 L190.429867,278.707319 L147.506544,278.607064 L147.409074,236.805103 Z M95.4195763,131.427763 C96.7397492,103.554786 106.535255,83.751439 124.806389,72.017128 C136.336251,64.5237008 150.474596,60.7316219 167.221847,60.6407775 C189.226956,60.5214123 207.47872,65.7021664 221.977688,76.1831954 C236.476656,86.6642244 243.669588,102.268939 243.5567,122.997808 C243.487476,135.708906 240.264765,146.432567 233.88847,155.169111 C230.159742,160.469176 223.015262,167.254291 212.454817,175.524658 L202.041275,183.647525 C196.369984,188.078154 192.593427,193.23174 190.71149,199.108436 C189.522843,202.830326 188.858545,208.602555 188.718578,216.425298 L149.284841,216.639204 C149.959039,200.111607 151.579067,188.687783 154.144974,182.36739 C156.71088,176.046997 163.273958,168.751727 173.834403,160.48136 L184.541645,152.063576 C188.061261,149.404565 190.900591,146.50485 193.059721,143.364345 C196.983717,137.965445 198.963258,132.039421 198.998403,125.586094 C199.038872,118.154991 196.909347,111.395739 192.609763,105.308137 C188.310179,99.2205356 180.415809,96.2079417 168.926416,96.2702651 C157.631759,96.3315322 149.602882,100.139357 144.839545,107.693855 C140.076207,115.248352 137.672477,123.083257 137.62828,131.198805 L95.4195763,131.427763 Z" id="?" fill="#FFFFFF" fill-rule="nonzero" transform="translate(169.488792, 169.673040) rotate(35.000000) translate(-169.488792, -169.673040) "></path>
        </g>
    </g>
</svg>